<svg width="182" height="17" viewBox="0 0 182 17" fill="none" xmlns="http://www.w3.org/2000/svg">
<path d="M16.2479 7.72861V8.16061C15.5439 8.22461 15.0879 8.36861 14.8799 8.59261C14.6719 8.81661 14.5679 9.31261 14.5679 10.0806V14.8806C13.1919 16.0006 11.1599 16.5606 8.47193 16.5606C7.22393 16.5606 6.02393 16.3366 4.87193 15.8886C3.73593 15.4406 2.77593 14.8086 1.99193 13.9926C0.663934 12.6006 -6.63698e-05 10.7286 -6.63698e-05 8.37661C-6.63698e-05 5.72061 0.855934 3.61661 2.56793 2.06461C4.07193 0.688608 5.98393 0.000607967 8.30393 0.000607967C9.32793 0.000607967 10.3919 0.184608 11.4959 0.552608C11.9279 0.712609 12.2799 0.792609 12.5519 0.792609C12.8079 0.792609 13.0319 0.720609 13.2239 0.576609C13.4159 0.416608 13.5519 0.224608 13.6319 0.000607967H14.1599L14.3519 5.06461H13.7999C13.2879 3.81661 12.7199 2.88861 12.0959 2.28061C11.1679 1.40061 9.99993 0.960608 8.59193 0.960608C6.99193 0.960608 5.65593 1.51261 4.58393 2.61661C3.35193 3.84861 2.73593 5.79261 2.73593 8.44861C2.73593 10.6566 3.31193 12.4006 4.46393 13.6806C5.61593 14.9606 7.14393 15.6006 9.04793 15.6006C9.95993 15.6006 10.7199 15.4566 11.3279 15.1686C11.9359 14.8806 12.2399 14.5366 12.2399 14.1366V10.3686C12.2399 9.44061 12.1199 8.86461 11.8799 8.64061C11.6559 8.40061 11.0639 8.24061 10.1039 8.16061V7.72861H16.2479ZM33.0642 8.28061C33.0642 10.7446 32.3362 12.7446 30.8802 14.2806C29.4242 15.8006 27.5362 16.5606 25.2162 16.5606C22.8802 16.5606 20.9842 15.7926 19.5282 14.2566C18.0882 12.7206 17.3682 10.7046 17.3682 8.20861C17.3682 5.77661 18.0882 3.80061 19.5282 2.28061C20.9842 0.760608 22.8802 0.000607967 25.2162 0.000607967C27.5522 0.000607967 29.4402 0.784608 30.8802 2.35261C32.3362 3.90461 33.0642 5.88061 33.0642 8.28061ZM30.3282 8.13661C30.3282 6.77661 30.1362 5.56061 29.7522 4.48861C29.3682 3.40061 28.8322 2.56861 28.1442 1.99261C27.2482 1.24061 26.2642 0.864608 25.1922 0.864608C23.8322 0.864608 22.6882 1.40061 21.7602 2.47261C21.2482 3.04861 20.8402 3.87261 20.5362 4.94461C20.2482 6.00061 20.1042 7.10461 20.1042 8.25661C20.1042 11.1686 20.8242 13.2886 22.2642 14.6166C23.0482 15.3366 24.0402 15.6966 25.2402 15.6966C26.4882 15.6966 27.5202 15.3126 28.3362 14.5446C29.6642 13.2646 30.3282 11.1286 30.3282 8.13661ZM44.0006 7.84861V7.87261C45.2006 8.06461 46.1766 8.50461 46.9286 9.19261C47.7126 9.89661 48.1046 10.8166 48.1046 11.9526C48.1046 13.2806 47.5846 14.3286 46.5446 15.0966C45.5046 15.8486 44.1126 16.2246 42.3686 16.2246H34.2806V15.7686C35.2246 15.7366 35.8406 15.5846 36.1286 15.3126C36.4326 15.0246 36.5846 14.4246 36.5846 13.5126V3.02461C36.5846 2.09661 36.4486 1.51261 36.1766 1.27261C35.9046 1.01661 35.2726 0.856608 34.2806 0.792609V0.336608H41.0006C43.0646 0.336608 44.6246 0.688608 45.6806 1.39261C46.7526 2.08061 47.2886 3.06461 47.2886 4.34461C47.2886 5.43261 46.9606 6.26461 46.3046 6.84061C45.8406 7.24061 45.0726 7.57661 44.0006 7.84861ZM39.0326 7.44061H41.2406C43.6406 7.44061 44.8406 6.44861 44.8406 4.46461C44.8406 3.44061 44.4806 2.64861 43.7606 2.08861C43.0566 1.51261 42.0006 1.22461 40.5926 1.22461H39.6086C39.2246 1.22461 39.0326 1.48061 39.0326 1.99261V7.44061ZM39.0326 8.40061V14.2566C39.0326 14.6566 39.1366 14.9366 39.3446 15.0966C39.5686 15.2566 39.9606 15.3366 40.5206 15.3366C41.6086 15.3366 42.4086 15.2806 42.9206 15.1686C43.4326 15.0406 43.9366 14.7526 44.4326 14.3046C45.0406 13.7766 45.3446 12.9846 45.3446 11.9286C45.3446 10.7126 44.9686 9.85661 44.2166 9.36061C44.0406 9.23261 43.8646 9.12861 43.6886 9.04861C43.5126 8.95261 43.3526 8.88061 43.2086 8.83261C43.0806 8.76861 42.9046 8.71261 42.6806 8.66461C42.4566 8.61661 42.2806 8.58461 42.1526 8.56861C42.0406 8.53661 41.8326 8.51261 41.5286 8.49661C41.2246 8.48061 41.0006 8.47261 40.8566 8.47261C40.7126 8.45661 40.4246 8.44061 39.9926 8.42461C39.5766 8.40861 39.2566 8.40061 39.0326 8.40061ZM57.4404 16.2246H50.3124V15.7686C51.3204 15.7366 51.9604 15.5926 52.2324 15.3366C52.5044 15.0646 52.6404 14.4646 52.6404 13.5366V3.00061C52.6404 2.07261 52.5124 1.48861 52.2564 1.24861C52.0004 1.00861 51.3524 0.856608 50.3124 0.792609V0.336608H57.4404V0.792609C56.4324 0.840609 55.7844 0.992609 55.4964 1.24861C55.2244 1.50461 55.0884 2.08861 55.0884 3.00061V13.5366C55.0884 14.4326 55.2324 15.0246 55.5204 15.3126C55.8084 15.5846 56.4484 15.7366 57.4404 15.7686V16.2246ZM69.1286 5.11261H68.5286C68.2566 4.12061 67.9286 3.36861 67.5446 2.85661C66.5686 1.60861 65.4086 0.984608 64.0646 0.984608C63.3286 0.984608 62.7366 1.20061 62.2886 1.63261C61.8566 2.04861 61.6406 2.59261 61.6406 3.26461C61.6406 3.58461 61.7206 3.89661 61.8806 4.20061C62.0406 4.50461 62.2086 4.76861 62.3846 4.99261C62.5766 5.20061 62.9046 5.46461 63.3686 5.78461C63.8326 6.10461 64.2086 6.35261 64.4966 6.52861C64.7846 6.68861 65.2646 6.96861 65.9366 7.36861C67.2326 8.12061 68.1766 8.87261 68.7686 9.62461C69.3606 10.3606 69.6566 11.1766 69.6566 12.0726C69.6566 13.4006 69.1926 14.4806 68.2646 15.3126C67.3366 16.1446 66.1686 16.5606 64.7606 16.5606C63.7206 16.5606 62.7766 16.3766 61.9286 16.0086C61.5126 15.8326 61.1366 15.7446 60.8006 15.7446C60.6086 15.7446 60.4486 15.8166 60.3206 15.9606C60.1926 16.1046 60.1286 16.2966 60.1286 16.5366H59.6006L58.9046 11.4486H59.4326C60.5046 14.2806 62.1526 15.6966 64.3766 15.6966C65.2246 15.6966 65.9126 15.4486 66.4406 14.9526C66.9686 14.4406 67.2326 13.7926 67.2326 13.0086C67.2326 12.2566 67.0006 11.6246 66.5366 11.1126C65.7686 10.2806 64.4246 9.35261 62.5046 8.32861C60.5526 7.28861 59.5766 5.91261 59.5766 4.20061C59.5766 2.92061 59.9686 1.90461 60.7526 1.15261C61.5366 0.384608 62.5366 0.000607967 63.7526 0.000607967C64.6006 0.000607967 65.4406 0.176608 66.2726 0.528608C66.7046 0.720609 67.0566 0.816609 67.3286 0.816609C67.7446 0.816609 68.0006 0.544609 68.0966 0.000607967H68.6006L69.1286 5.11261ZM85.9445 13.0806L86.4005 13.5126C84.9765 15.5446 82.7925 16.5606 79.8485 16.5606C77.5285 16.5606 75.6405 15.8486 74.1845 14.4246C72.6485 12.9206 71.8805 10.9206 71.8805 8.42461C71.8805 6.08861 72.6005 4.11261 74.0405 2.49661C75.5445 0.832608 77.4885 0.000607967 79.8725 0.000607967C80.8965 0.000607967 81.8485 0.120608 82.7285 0.360609C83.7365 0.648609 84.2885 0.792609 84.3845 0.792609C84.9125 0.792609 85.2485 0.528609 85.3925 0.000607967H85.8725L86.0885 5.44861H85.5365C85.2805 4.29661 84.8645 3.40861 84.2885 2.78461C83.1525 1.56861 81.8645 0.960608 80.4245 0.960608C78.6485 0.960608 77.2405 1.61661 76.2005 2.92861C75.1765 4.22461 74.6645 5.92861 74.6645 8.04061C74.6645 10.6166 75.2405 12.5286 76.3925 13.7766C77.4645 14.9286 78.8885 15.5046 80.6645 15.5046C81.7205 15.5046 82.6325 15.3206 83.4005 14.9526C84.1685 14.5846 85.0165 13.9606 85.9445 13.0806ZM104.088 16.2246H97.3923V15.7686C98.3203 15.7046 98.9043 15.5286 99.1443 15.2406C99.3843 14.9366 99.5043 14.2726 99.5043 13.2486V8.66461H92.2323V13.5126C92.2323 14.3926 92.3603 14.9766 92.6163 15.2646C92.8723 15.5526 93.4403 15.7206 94.3203 15.7686L94.3443 16.2246H87.6483V15.7686C88.5923 15.7046 89.1843 15.5366 89.4243 15.2646C89.6643 14.9766 89.7843 14.3206 89.7843 13.2966V3.07261C89.7843 2.14461 89.6563 1.55261 89.4003 1.29661C89.1603 1.04061 88.5763 0.872609 87.6483 0.792609V0.336608H94.3683V0.792609C93.4723 0.872609 92.8883 1.04861 92.6163 1.32061C92.3603 1.57661 92.2323 2.16061 92.2323 3.07261V7.60861H99.5043V3.07261C99.5043 2.14461 99.3763 1.55261 99.1203 1.29661C98.8803 1.04061 98.2963 0.872609 97.3683 0.792609V0.336608H104.088V0.792609C103.192 0.872609 102.608 1.04861 102.336 1.32061C102.08 1.57661 101.952 2.16061 101.952 3.07261V13.5606C101.952 14.4086 102.08 14.9766 102.336 15.2646C102.608 15.5366 103.192 15.7046 104.088 15.7686V16.2246ZM121.049 8.28061C121.049 10.7446 120.321 12.7446 118.865 14.2806C117.409 15.8006 115.521 16.5606 113.201 16.5606C110.865 16.5606 108.969 15.7926 107.513 14.2566C106.073 12.7206 105.353 10.7046 105.353 8.20861C105.353 5.77661 106.073 3.80061 107.513 2.28061C108.969 0.760608 110.865 0.000607967 113.201 0.000607967C115.537 0.000607967 117.425 0.784608 118.865 2.35261C120.321 3.90461 121.049 5.88061 121.049 8.28061ZM118.313 8.13661C118.313 6.77661 118.121 5.56061 117.737 4.48861C117.353 3.40061 116.817 2.56861 116.129 1.99261C115.233 1.24061 114.249 0.864608 113.177 0.864608C111.817 0.864608 110.673 1.40061 109.745 2.47261C109.233 3.04861 108.825 3.87261 108.521 4.94461C108.233 6.00061 108.089 7.10461 108.089 8.25661C108.089 11.1686 108.809 13.2886 110.249 14.6166C111.033 15.3366 112.025 15.6966 113.225 15.6966C114.473 15.6966 115.505 15.3126 116.321 14.5446C117.649 13.2646 118.313 11.1286 118.313 8.13661ZM136.209 12.0486L135.057 16.2246H122.145V15.7686C123.025 15.7206 123.593 15.5526 123.849 15.2646C124.105 14.9766 124.233 14.3766 124.233 13.4646V3.12061C124.233 2.17661 124.113 1.56861 123.873 1.29661C123.649 1.02461 123.073 0.856608 122.145 0.792609V0.336608H128.937V0.792609C127.961 0.856608 127.337 1.02461 127.065 1.29661C126.809 1.55261 126.681 2.14461 126.681 3.07261V14.2086C126.681 14.6566 126.817 14.9526 127.089 15.0966C127.377 15.2246 127.961 15.2886 128.841 15.2886H130.521C132.457 15.2886 133.809 14.8006 134.577 13.8246C134.897 13.3926 135.233 12.8006 135.585 12.0486H136.209ZM153.473 16.2246H147.353V15.7686C147.993 15.7686 148.433 15.6966 148.673 15.5526C148.897 15.4406 149.009 15.2486 149.009 14.9766C149.009 14.5606 148.857 14.0006 148.553 13.2966L147.569 11.0406H141.281L140.177 13.7766C140.033 14.1446 139.961 14.4806 139.961 14.7846C139.961 15.1526 140.089 15.4086 140.345 15.5526C140.617 15.6966 141.049 15.7686 141.641 15.7686V16.2246H136.865V15.7686C137.537 15.7046 138.025 15.4646 138.329 15.0486C138.633 14.6166 139.153 13.5206 139.889 11.7606L144.833 0.0486088H145.313L151.217 13.5606C151.569 14.3926 151.881 14.9526 152.153 15.2406C152.441 15.5286 152.881 15.7046 153.473 15.7686V16.2246ZM147.233 10.0566L144.449 3.45661L141.689 10.0566H147.233ZM169.666 16.2246H165.778L160.066 8.83261L158.722 8.88061V13.5366C158.722 14.4486 158.842 15.0326 159.082 15.2886C159.338 15.5446 159.93 15.7046 160.858 15.7686V16.2246H154.234V15.7686C155.146 15.6886 155.714 15.5126 155.938 15.2406C156.162 14.9686 156.274 14.3046 156.274 13.2486V3.00061C156.274 2.10461 156.162 1.52861 155.938 1.27261C155.714 1.01661 155.146 0.856608 154.234 0.792609V0.336608H160.762C162.954 0.336608 164.626 0.808608 165.778 1.75261C166.562 2.39261 166.954 3.35261 166.954 4.63261C166.954 6.80861 165.506 8.12061 162.61 8.56861L167.41 14.6406C167.746 15.0566 168.066 15.3366 168.37 15.4806C168.674 15.6246 169.106 15.7206 169.666 15.7686V16.2246ZM158.722 2.23261V7.99261C159.874 7.97661 160.73 7.91261 161.29 7.80061C161.85 7.68861 162.41 7.48061 162.97 7.17661C163.882 6.66461 164.338 5.75261 164.338 4.44061C164.338 2.29661 162.874 1.22461 159.946 1.22461C159.514 1.22461 159.202 1.29661 159.01 1.44061C158.818 1.56861 158.722 1.83261 158.722 2.23261ZM181.089 5.11261H180.489C180.217 4.12061 179.889 3.36861 179.505 2.85661C178.529 1.60861 177.369 0.984608 176.025 0.984608C175.289 0.984608 174.697 1.20061 174.249 1.63261C173.817 2.04861 173.601 2.59261 173.601 3.26461C173.601 3.58461 173.681 3.89661 173.841 4.20061C174.001 4.50461 174.169 4.76861 174.345 4.99261C174.537 5.20061 174.865 5.46461 175.329 5.78461C175.793 6.10461 176.169 6.35261 176.457 6.52861C176.745 6.68861 177.225 6.96861 177.897 7.36861C179.193 8.12061 180.137 8.87261 180.729 9.62461C181.321 10.3606 181.617 11.1766 181.617 12.0726C181.617 13.4006 181.153 14.4806 180.225 15.3126C179.297 16.1446 178.129 16.5606 176.721 16.5606C175.681 16.5606 174.737 16.3766 173.889 16.0086C173.473 15.8326 173.097 15.7446 172.761 15.7446C172.569 15.7446 172.409 15.8166 172.281 15.9606C172.153 16.1046 172.089 16.2966 172.089 16.5366H171.561L170.865 11.4486H171.393C172.465 14.2806 174.113 15.6966 176.337 15.6966C177.185 15.6966 177.873 15.4486 178.401 14.9526C178.929 14.4406 179.193 13.7926 179.193 13.0086C179.193 12.2566 178.961 11.6246 178.497 11.1126C177.729 10.2806 176.385 9.35261 174.465 8.32861C172.513 7.28861 171.537 5.91261 171.537 4.20061C171.537 2.92061 171.929 1.90461 172.713 1.15261C173.497 0.384608 174.497 0.000607967 175.713 0.000607967C176.561 0.000607967 177.401 0.176608 178.233 0.528608C178.665 0.720609 179.017 0.816609 179.289 0.816609C179.705 0.816609 179.961 0.544609 180.057 0.000607967H180.561L181.089 5.11261Z" fill="white"/>
</svg>
