<svg width="1606" height="284" viewBox="0 0 1606 284" fill="none" xmlns="http://www.w3.org/2000/svg">
<path d="M147.922 70.3554V74.2884C141.513 74.871 137.361 76.182 135.468 78.2213C133.574 80.2606 132.627 84.7762 132.627 91.7681V135.467C120.1 145.664 101.601 150.762 77.1293 150.762C65.7675 150.762 54.8427 148.723 44.3549 144.644C34.0127 140.566 25.2729 134.812 18.1353 127.383C6.04519 114.71 0.000121914 97.6675 0.000121914 76.2548C0.000121914 52.0746 7.79316 32.9197 23.3792 18.7903C37.0717 6.26317 54.4785 -0.000391599 75.5998 -0.000391599C84.9224 -0.000391599 94.609 1.67475 104.66 5.02502C108.593 6.48167 111.797 7.21 114.274 7.21C116.604 7.21 118.644 6.55451 120.392 5.24353C122.14 3.78688 123.378 2.03891 124.106 -0.000391599H128.913L130.661 46.1023H125.636C120.974 34.7405 115.803 26.292 110.122 20.7568C101.674 12.7452 91.0403 8.73947 78.2218 8.73947C63.6554 8.73947 51.4924 13.7649 41.7329 23.8157C30.5168 35.0319 24.9087 52.7301 24.9087 76.9103C24.9087 97.012 30.1526 112.889 40.6404 124.543C51.1283 136.196 65.0392 142.022 82.3732 142.022C90.6761 142.022 97.5951 140.711 103.13 138.089C108.666 135.467 111.433 132.336 111.433 128.694V94.39C111.433 85.9415 110.341 80.6976 108.156 78.6583C106.116 76.4733 100.727 75.0167 91.9871 74.2884V70.3554H147.922ZM296.648 75.3808C296.648 97.8131 290.02 116.021 276.765 130.005C263.51 143.843 246.321 150.762 225.2 150.762C203.933 150.762 186.672 143.77 173.416 129.786C160.306 115.803 153.752 97.449 153.752 74.7254C153.752 52.5844 160.306 34.5949 173.416 20.7568C186.672 6.91866 203.933 -0.000391599 225.2 -0.000391599C246.467 -0.000391599 263.655 7.13716 276.765 21.4123C290.02 35.5417 296.648 53.5312 296.648 75.3808ZM271.74 74.0699C271.74 61.6884 269.992 50.6179 266.496 40.8584C263 30.9533 258.12 23.3787 251.856 18.1348C243.699 11.2886 234.741 7.86548 224.981 7.86548C212.6 7.86548 202.185 12.7452 193.736 22.5047C189.075 27.7487 185.361 35.2504 182.593 45.0099C179.971 54.6237 178.66 64.6745 178.66 75.1623C178.66 101.673 185.215 120.974 198.325 133.064C205.462 139.619 214.494 142.896 225.418 142.896C236.78 142.896 246.175 139.4 253.604 132.408C265.694 120.755 271.74 101.309 271.74 74.0699ZM391.843 71.4479V71.6664C402.767 73.4144 411.653 77.4201 418.499 83.6837C425.637 90.0929 429.205 98.4686 429.205 108.811C429.205 120.901 424.471 130.442 415.003 137.434C405.535 144.28 392.862 147.703 376.985 147.703H303.352V143.552C311.946 143.26 317.554 141.877 320.176 139.4C322.943 136.778 324.327 131.316 324.327 123.013V27.5302C324.327 19.0816 323.089 13.7649 320.613 11.5799C318.136 9.24929 312.383 7.79265 303.352 7.21V3.05856H364.53C383.321 3.05856 397.523 6.26317 407.137 12.6724C416.897 18.936 421.777 27.8943 421.777 39.5474C421.777 49.4526 418.79 57.0272 412.818 62.2711C408.594 65.9127 401.602 68.9716 391.843 71.4479ZM346.614 67.7335H366.715C388.565 67.7335 399.49 58.7023 399.49 40.6399C399.49 31.3174 396.212 24.107 389.658 19.0088C383.248 13.7649 373.635 11.1429 360.816 11.1429H351.858C348.362 11.1429 346.614 13.4736 346.614 18.1348V67.7335ZM346.614 76.4733V129.786C346.614 133.428 347.561 135.977 349.454 137.434C351.494 138.89 355.062 139.619 360.161 139.619C370.066 139.619 377.349 139.109 382.01 138.089C386.671 136.924 391.26 134.302 395.775 130.223C401.311 125.417 404.078 118.206 404.078 108.592C404.078 97.5218 400.655 89.7288 393.809 85.2132C392.207 84.0479 390.604 83.101 389.002 82.3727C387.4 81.4987 385.943 80.8433 384.632 80.4063C383.467 79.8236 381.865 79.3138 379.825 78.8768C377.786 78.4398 376.184 78.1485 375.018 78.0028C373.999 77.7115 372.105 77.493 369.337 77.3473C366.57 77.2016 364.53 77.1288 363.22 77.1288C361.909 76.9832 359.287 76.8375 355.354 76.6918C351.566 76.5462 348.653 76.4733 346.614 76.4733ZM509.829 147.703H444.935V143.552C454.112 143.26 459.939 141.949 462.415 139.619C464.891 137.142 466.13 131.68 466.13 123.232V27.3117C466.13 18.8631 464.964 13.5464 462.634 11.3614C460.303 9.17646 454.404 7.79265 444.935 7.21V3.05856H509.829V7.21C500.652 7.64698 494.753 9.03079 492.131 11.3614C489.654 13.692 488.416 19.0088 488.416 27.3117V123.232C488.416 131.389 489.727 136.778 492.349 139.4C494.971 141.877 500.798 143.26 509.829 143.552V147.703ZM611.868 46.5393H606.406C603.93 37.5081 600.944 30.6619 597.448 26.0007C588.562 14.6389 578.001 8.95796 565.766 8.95796C559.065 8.95796 553.675 10.9244 549.597 14.8574C545.664 18.6446 543.697 23.5972 543.697 29.7151C543.697 32.6284 544.426 35.4688 545.882 38.2365C547.339 41.0041 548.869 43.4075 550.471 45.4468C552.219 47.3405 555.205 49.7439 559.429 52.6572C563.653 55.5705 567.077 57.8283 569.699 59.4306C572.32 60.8873 576.69 63.4364 582.808 67.078C594.607 73.9242 603.201 80.7704 608.591 87.6166C613.98 94.3172 616.675 101.746 616.675 109.903C616.675 121.993 612.451 131.826 604.002 139.4C595.554 146.975 584.92 150.762 572.102 150.762C562.634 150.762 554.04 149.087 546.319 145.737C542.532 144.134 539.109 143.333 536.05 143.333C534.302 143.333 532.845 143.989 531.68 145.3C530.515 146.611 529.932 148.359 529.932 150.544H525.125L518.789 104.222H523.596C533.355 130.005 548.359 142.896 568.606 142.896C576.326 142.896 582.59 140.638 587.397 136.123C592.204 131.462 594.607 125.562 594.607 118.425C594.607 111.578 592.495 105.825 588.271 101.163C581.279 93.5889 569.043 85.1403 551.563 75.8178C533.792 66.3497 524.907 53.8225 524.907 38.2365C524.907 26.5833 528.476 17.3337 535.613 10.4874C542.751 3.49555 551.855 -0.000391599 562.925 -0.000391599C570.645 -0.000391599 578.293 1.60192 585.867 4.80653C589.8 6.5545 593.005 7.42849 595.481 7.42849C599.268 7.42849 601.599 4.9522 602.473 -0.000391599H607.061L611.868 46.5393ZM760.591 119.08L764.742 123.013C751.778 141.512 731.895 150.762 705.093 150.762C683.972 150.762 666.783 144.28 653.528 131.316C639.544 117.623 632.552 99.4154 632.552 76.6918C632.552 55.4248 639.107 37.4353 652.217 22.7232C665.909 7.57415 683.607 -0.000391599 705.311 -0.000391599C714.634 -0.000391599 723.301 1.09209 731.312 3.27706C740.489 5.89902 745.515 7.21 746.389 7.21C751.196 7.21 754.254 4.80653 755.565 -0.000391599H759.935L761.902 49.5983H756.876C754.546 39.1105 750.759 31.0261 745.515 25.3452C735.172 14.2747 723.447 8.73947 710.337 8.73947C694.168 8.73947 681.35 14.7117 671.881 26.6562C662.559 38.455 657.898 53.9682 657.898 73.1959C657.898 96.6478 663.142 114.055 673.629 125.417C683.389 135.904 696.353 141.148 712.522 141.148C722.136 141.148 730.438 139.473 737.43 136.123C744.422 132.773 752.142 127.092 760.591 119.08ZM921.402 147.703H860.442V143.552C868.891 142.969 874.207 141.367 876.392 138.745C878.577 135.977 879.67 129.932 879.67 120.61V78.8768H813.465V123.013C813.465 131.025 814.631 136.341 816.961 138.963C819.292 141.585 824.463 143.115 832.474 143.552L832.693 147.703H771.732V143.552C780.327 142.969 785.716 141.44 787.901 138.963C790.086 136.341 791.179 130.369 791.179 121.047V27.9671C791.179 19.5186 790.013 14.129 787.683 11.7984C785.498 9.46779 780.181 7.93832 771.732 7.21V3.05856H832.911V7.21C824.754 7.93832 819.438 9.54062 816.961 12.0169C814.631 14.3475 813.465 19.6643 813.465 27.9671V69.2629H879.67V27.9671C879.67 19.5186 878.504 14.129 876.174 11.7984C873.989 9.46779 868.672 7.93832 860.224 7.21V3.05856H921.402V7.21C913.245 7.93832 907.929 9.54062 905.452 12.0169C903.122 14.3475 901.956 19.6643 901.956 27.9671V123.45C901.956 131.17 903.122 136.341 905.452 138.963C907.929 141.44 913.245 142.969 921.402 143.552V147.703ZM1071.44 75.3808C1071.44 97.8131 1064.81 116.021 1051.56 130.005C1038.3 143.843 1021.11 150.762 999.991 150.762C978.724 150.762 961.463 143.77 948.207 129.786C935.098 115.803 928.543 97.449 928.543 74.7254C928.543 52.5844 935.098 34.5949 948.207 20.7568C961.463 6.91866 978.724 -0.000391599 999.991 -0.000391599C1021.26 -0.000391599 1038.45 7.13716 1051.56 21.4123C1064.81 35.5417 1071.44 53.5312 1071.44 75.3808ZM1046.53 74.0699C1046.53 61.6884 1044.78 50.6179 1041.29 40.8584C1037.79 30.9533 1032.91 23.3787 1026.65 18.1348C1018.49 11.2886 1009.53 7.86548 999.773 7.86548C987.391 7.86548 976.976 12.7452 968.528 22.5047C963.866 27.7487 960.152 35.2504 957.384 45.0099C954.762 54.6237 953.451 64.6745 953.451 75.1623C953.451 101.673 960.006 120.974 973.116 133.064C980.254 139.619 989.285 142.896 1000.21 142.896C1011.57 142.896 1020.97 139.4 1028.4 132.408C1040.49 120.755 1046.53 101.309 1046.53 74.0699ZM1205.09 109.685L1194.6 147.703H1077.05V143.552C1085.06 143.115 1090.23 141.585 1092.56 138.963C1094.89 136.341 1096.06 130.879 1096.06 122.576V28.4041C1096.06 19.81 1094.97 14.2747 1092.78 11.7984C1090.74 9.32212 1085.5 7.79265 1077.05 7.21V3.05856H1138.88V7.21C1130 7.79265 1124.32 9.32212 1121.84 11.7984C1119.51 14.129 1118.35 19.5186 1118.35 27.9671V129.349C1118.35 133.428 1119.58 136.123 1122.06 137.434C1124.68 138.599 1130 139.182 1138.01 139.182H1153.31C1170.93 139.182 1183.24 134.739 1190.23 125.853C1193.14 121.921 1196.2 116.531 1199.41 109.685H1205.09ZM1357.89 147.703H1302.18V143.552C1308 143.552 1312.01 142.896 1314.2 141.585C1316.23 140.566 1317.25 138.818 1317.25 136.341C1317.25 132.554 1315.87 127.456 1313.1 121.047L1304.14 100.508H1246.9L1236.85 125.417C1235.54 128.767 1234.88 131.826 1234.88 134.593C1234.88 137.944 1236.05 140.274 1238.38 141.585C1240.85 142.896 1244.79 143.552 1250.18 143.552V147.703H1206.7V143.552C1212.81 142.969 1217.26 140.784 1220.02 136.997C1222.79 133.064 1227.53 123.086 1234.23 107.063L1279.24 0.436608H1283.61L1337.36 123.45C1340.56 131.025 1343.4 136.123 1345.88 138.745C1348.5 141.367 1352.51 142.969 1357.89 143.552V147.703ZM1301.09 91.5496L1275.74 31.4631L1250.61 91.5496H1301.09ZM1500.94 147.703H1465.54L1413.54 80.4063L1401.31 80.8432V123.232C1401.31 131.534 1402.4 136.851 1404.58 139.182C1406.91 141.512 1412.3 142.969 1420.75 143.552V147.703H1360.45V143.552C1368.75 142.823 1373.92 141.221 1375.96 138.745C1378 136.268 1379.02 130.223 1379.02 120.61V27.3117C1379.02 19.1545 1378 13.9105 1375.96 11.5799C1373.92 9.24929 1368.75 7.79265 1360.45 7.21V3.05856H1419.88C1439.83 3.05856 1455.06 7.35565 1465.54 15.9498C1472.68 21.7764 1476.25 30.5163 1476.25 42.1694C1476.25 61.9797 1463.07 73.9242 1436.7 78.0028L1480.4 133.282C1483.46 137.07 1486.37 139.619 1489.14 140.93C1491.91 142.241 1495.84 143.115 1500.94 143.552V147.703ZM1401.31 20.3198V72.7589C1411.79 72.6132 1419.59 72.0306 1424.68 71.0109C1429.78 69.9913 1434.88 68.0976 1439.98 65.33C1448.28 60.6688 1452.43 52.3659 1452.43 40.4214C1452.43 20.9024 1439.11 11.1429 1412.45 11.1429C1408.52 11.1429 1405.68 11.7984 1403.93 13.1094C1402.18 14.2747 1401.31 16.6782 1401.31 20.3198ZM1600.57 46.5393H1595.11C1592.63 37.5081 1589.65 30.6619 1586.15 26.0007C1577.27 14.6389 1566.71 8.95796 1554.47 8.95796C1547.77 8.95796 1542.38 10.9244 1538.3 14.8574C1534.37 18.6446 1532.4 23.5972 1532.4 29.7151C1532.4 32.6284 1533.13 35.4688 1534.59 38.2365C1536.04 41.0041 1537.57 43.4075 1539.18 45.4468C1540.92 47.3405 1543.91 49.7439 1548.13 52.6572C1552.36 55.5705 1555.78 57.8283 1558.4 59.4306C1561.02 60.8873 1565.39 63.4364 1571.51 67.078C1583.31 73.9242 1591.91 80.7704 1597.3 87.6166C1602.68 94.3172 1605.38 101.746 1605.38 109.903C1605.38 121.993 1601.16 131.826 1592.71 139.4C1584.26 146.975 1573.62 150.762 1560.81 150.762C1551.34 150.762 1542.74 149.087 1535.02 145.737C1531.24 144.134 1527.81 143.333 1524.75 143.333C1523.01 143.333 1521.55 143.989 1520.38 145.3C1519.22 146.611 1518.64 148.359 1518.64 150.544H1513.83L1507.49 104.222H1512.3C1522.06 130.005 1537.06 142.896 1557.31 142.896C1565.03 142.896 1571.29 140.638 1576.1 136.123C1580.91 131.462 1583.31 125.562 1583.31 118.425C1583.31 111.578 1581.2 105.825 1576.98 101.163C1569.98 93.5889 1557.75 85.1403 1540.27 75.8178C1522.5 66.3497 1513.61 53.8225 1513.61 38.2365C1513.61 26.5833 1517.18 17.3337 1524.32 10.4874C1531.46 3.49555 1540.56 -0.000391599 1551.63 -0.000391599C1559.35 -0.000391599 1567 1.60192 1574.57 4.80653C1578.5 6.5545 1581.71 7.42849 1584.19 7.42849C1587.97 7.42849 1590.3 4.9522 1591.18 -0.000391599H1595.77L1600.57 46.5393ZM568.733 284.703H533.91V282.108C537.551 282.108 540.055 281.699 541.421 280.879C542.695 280.242 543.332 279.15 543.332 277.602C543.332 275.235 542.468 272.049 540.738 268.043L535.139 255.206H499.36L493.078 270.774C492.259 272.868 491.849 274.78 491.849 276.51C491.849 278.603 492.578 280.06 494.034 280.879C495.582 281.699 498.04 282.108 501.408 282.108V284.703H474.233V282.108C478.057 281.744 480.833 280.379 482.563 278.012C484.293 275.554 487.252 269.317 491.44 259.303L519.571 192.662H522.302L555.896 269.545C557.899 274.279 559.674 277.465 561.222 279.104C562.861 280.743 565.364 281.744 568.733 282.108V284.703ZM533.227 249.607L517.386 212.053L501.682 249.607H533.227ZM648.387 266.814L650.981 269.272C642.879 280.834 630.452 286.615 613.7 286.615C600.5 286.615 589.757 282.564 581.472 274.461C572.732 265.903 568.362 254.523 568.362 240.321C568.362 227.029 572.459 215.786 580.653 206.591C589.211 197.123 600.272 192.388 613.837 192.388C619.664 192.388 625.08 193.071 630.088 194.437C635.823 196.076 638.964 196.895 639.51 196.895C642.515 196.895 644.426 195.393 645.246 192.388H647.977L649.206 223.388H646.065C644.609 216.833 642.241 211.78 638.964 208.229C632.5 201.31 625.171 197.851 616.978 197.851C606.872 197.851 598.861 201.583 592.943 209.049C587.117 216.423 584.203 226.119 584.203 238.136C584.203 252.794 587.481 263.673 594.036 270.774C600.135 277.329 608.238 280.606 618.343 280.606C624.352 280.606 629.541 279.559 633.911 277.465C638.281 275.372 643.106 271.821 648.387 266.814ZM747.306 284.703H712.484V282.108C716.125 282.108 718.629 281.699 719.994 280.879C721.269 280.242 721.906 279.15 721.906 277.602C721.906 275.235 721.041 272.049 719.312 268.043L713.713 255.206H677.934L671.652 270.774C670.833 272.868 670.423 274.78 670.423 276.51C670.423 278.603 671.151 280.06 672.608 280.879C674.156 281.699 676.614 282.108 679.982 282.108V284.703H652.807V282.108C656.63 281.744 659.407 280.379 661.137 278.012C662.867 275.554 665.826 269.317 670.013 259.303L698.145 192.662H700.876L734.47 269.545C736.473 274.279 738.248 277.465 739.796 279.104C741.434 280.743 743.938 281.744 747.306 282.108V284.703ZM711.801 249.607L695.96 212.053L680.255 249.607H711.801ZM748.765 194.3H785.636C803.389 194.3 817.045 198.443 826.604 206.727C835.617 214.466 840.124 225.254 840.124 239.092C840.124 255.752 833.933 268.043 821.551 275.963C812.538 281.79 801.067 284.703 787.138 284.703H748.765V282.108C754.045 281.744 757.368 280.834 758.734 279.377C760.099 277.83 760.782 274.37 760.782 268.999V209.595C760.782 204.315 760.099 200.992 758.734 199.626C757.368 198.169 754.045 197.259 748.765 196.895V194.3ZM774.711 205.089V273.232C774.711 275.69 775.121 277.374 775.94 278.285C776.851 279.195 778.626 279.65 781.266 279.65C788.367 279.65 794.103 279.15 798.473 278.148C802.843 277.147 807.03 275.28 811.036 272.549C820.504 266.176 825.239 255.297 825.239 239.911C825.239 226.711 820.914 216.332 812.265 208.776C808.351 205.316 804.072 202.904 799.429 201.538C794.786 200.081 788.959 199.353 781.949 199.353C779.309 199.353 777.442 199.763 776.35 200.582C775.257 201.401 774.711 202.904 774.711 205.089ZM923.928 261.624L917.646 284.703H844.04V282.108C849.229 281.744 852.507 280.834 853.872 279.377C855.238 277.83 855.921 274.416 855.921 269.135V209.595C855.921 204.497 855.193 201.174 853.736 199.626C852.37 198.078 849.138 197.168 844.04 196.895V194.3H916.417L916.963 213.828H913.549C912.548 207.729 910.773 203.814 908.223 202.084C905.674 200.354 900.439 199.49 892.519 199.49H874.63C872.627 199.49 871.307 199.808 870.669 200.445C870.123 200.992 869.85 202.312 869.85 204.406V234.449H890.471C896.206 234.449 899.984 233.63 901.805 231.991C903.717 230.352 905.083 226.802 905.902 221.339H909.043V253.294H905.902C905.083 247.559 903.762 243.917 901.942 242.369C900.121 240.822 896.297 240.048 890.471 240.048H869.85V273.232C869.85 275.963 870.806 277.739 872.718 278.558C874.63 279.286 878.271 279.65 883.643 279.65H888.559C898.3 279.65 905.219 278.467 909.316 276.1C913.413 273.733 917.009 268.908 920.104 261.624H923.928ZM1041.14 284.703H1002.9V282.108C1008.28 281.744 1011.64 280.743 1013.01 279.104C1014.47 277.374 1015.19 273.642 1015.19 267.906V206.591L980.372 284.703H978.46L944.047 209.732V264.083C944.047 271.457 944.821 276.236 946.369 278.421C947.916 280.606 951.376 281.835 956.747 282.108V284.703H924.792V282.108C928.798 281.835 931.666 281.244 933.395 280.333C935.125 279.423 936.309 277.83 936.946 275.554C937.674 273.187 938.038 269.363 938.038 264.083V209.732C938.038 204.542 937.265 201.219 935.717 199.763C934.169 198.215 930.619 197.259 925.065 196.895V194.3H952.104L983.649 262.853L1013.83 194.3H1041V196.895C1036.09 196.986 1032.86 197.851 1031.31 199.49C1029.85 201.128 1029.12 204.497 1029.12 209.595V269.408C1029.12 274.234 1029.85 277.465 1031.31 279.104C1032.86 280.743 1036.13 281.744 1041.14 282.108V284.703ZM1137.78 194.3V196.895C1133.78 197.259 1130.59 198.397 1128.22 200.309C1125.95 202.221 1122.85 206.181 1118.94 212.19L1098.72 243.325V269.545C1098.72 274.734 1099.59 278.057 1101.32 279.514C1103.05 280.97 1106.87 281.835 1112.79 282.108V284.703H1071V282.108C1077.19 281.653 1081.02 280.697 1082.47 279.241C1084.02 277.693 1084.8 273.915 1084.8 267.906V244.554L1066.91 218.335C1060.72 209.231 1056.3 203.45 1053.66 200.992C1051.02 198.443 1048.06 197.077 1044.78 196.895V194.3H1082.88V196.895L1079.61 197.031C1075.33 197.123 1073.19 198.306 1073.19 200.582C1073.19 202.494 1074.01 204.633 1075.65 207L1095.58 237.18L1115.39 206.864C1116.66 204.952 1117.3 203.04 1117.3 201.128C1117.21 199.581 1116.48 198.534 1115.11 197.987C1113.84 197.35 1111.47 196.986 1108.01 196.895V194.3H1137.78Z" fill="#C4151C"/>
</svg>
