<svg width="1604" height="147" viewBox="0 0 1604 147" fill="none" xmlns="http://www.w3.org/2000/svg">
<path d="M143.433 68.2202V72.0338C137.218 72.5988 133.193 73.87 131.357 75.8474C129.52 77.8248 128.602 82.2034 128.602 88.9831V131.356C116.455 141.243 98.5175 146.187 74.7885 146.187C63.7715 146.187 53.1782 144.209 43.0087 140.255C32.9803 136.3 24.5057 130.721 17.5848 123.517C5.86153 111.229 -8.26858e-05 94.7035 -8.26858e-05 73.9406C-8.26858e-05 50.4941 7.55646 31.9206 22.6695 18.2199C35.9465 6.07297 52.8251 -0.000517187 73.3055 -0.000517187C82.3451 -0.000517187 91.7378 1.62379 101.484 4.87239C105.297 6.28484 108.405 6.99106 110.806 6.99106C113.066 6.99106 115.043 6.35546 116.738 5.08427C118.433 3.67182 119.633 1.9769 120.34 -0.000517187H125.001L126.696 44.7031H121.823C117.303 33.6861 112.289 25.494 106.78 20.1267C98.5881 12.3583 88.2773 8.47412 75.8478 8.47412C61.7235 8.47412 49.9296 13.347 40.4663 23.0928C29.5905 33.9686 24.1526 51.1297 24.1526 74.5762C24.1526 94.0679 29.2374 109.463 39.4069 120.763C49.5765 132.062 63.0653 137.712 79.8733 137.712C87.9242 137.712 94.6333 136.441 100.001 133.899C105.368 131.356 108.051 128.319 108.051 124.788V91.5255C108.051 83.3333 106.992 78.2486 104.873 76.2711C102.896 74.1525 97.67 72.74 89.1954 72.0338V68.2202H143.433ZM291.883 73.0932C291.883 94.8447 285.456 112.5 272.603 126.06C259.75 139.478 243.083 146.187 222.603 146.187C201.981 146.187 185.244 139.407 172.391 125.848C159.679 112.288 153.323 94.4916 153.323 72.4576C153.323 50.9885 159.679 33.5449 172.391 20.1267C185.244 6.70857 201.981 -0.000517187 222.603 -0.000517187C243.224 -0.000517187 259.891 6.92043 272.603 20.7623C285.456 34.463 291.883 51.9066 291.883 73.0932ZM267.73 71.822C267.73 59.8162 266.035 49.0817 262.646 39.6184C259.256 30.0138 254.524 22.6691 248.451 17.5843C240.541 10.9459 231.854 7.62665 222.391 7.62665C210.385 7.62665 200.286 12.3583 192.094 21.8217C187.574 26.9064 183.973 34.1805 181.289 43.6438C178.747 52.9659 177.476 62.7117 177.476 72.8813C177.476 98.5877 183.831 117.302 196.543 129.026C203.464 135.382 212.221 138.56 222.815 138.56C233.832 138.56 242.942 135.17 250.145 128.39C261.869 117.091 267.73 98.2346 267.73 71.822ZM388.426 69.2796V69.4914C399.019 71.1864 407.635 75.0706 414.273 81.1441C421.194 87.3588 424.655 95.4803 424.655 105.509C424.655 117.232 420.064 126.483 410.884 133.263C401.703 139.901 389.415 143.221 374.019 143.221H302.62V139.195C310.954 138.913 316.392 137.571 318.934 135.17C321.618 132.627 322.959 127.331 322.959 119.28V26.6946C322.959 18.5024 321.759 13.347 319.358 11.2284C316.957 8.96847 311.377 7.55603 302.62 6.99106V2.9656H361.943C380.163 2.9656 393.934 6.07297 403.256 12.2877C412.72 18.3612 417.451 27.0477 417.451 38.3472C417.451 47.9518 414.556 55.2964 408.765 60.3812C404.669 63.9123 397.889 66.8784 388.426 69.2796ZM344.57 65.6779H364.061C385.248 65.6779 395.841 56.9207 395.841 39.4065C395.841 30.3669 392.663 23.3753 386.307 18.4318C380.092 13.347 370.77 10.8046 358.341 10.8046H349.654C346.265 10.8046 344.57 13.0645 344.57 17.5843V65.6779ZM344.57 74.1525V125.848C344.57 129.379 345.488 131.851 347.324 133.263C349.301 134.675 352.762 135.382 357.705 135.382C367.31 135.382 374.372 134.887 378.892 133.899C383.412 132.769 387.861 130.226 392.239 126.271C397.607 121.61 400.29 114.619 400.29 105.297C400.29 94.5622 396.971 87.0057 390.333 82.6271C388.779 81.4972 387.225 80.5791 385.672 79.8729C384.118 79.0254 382.706 78.3898 381.434 77.9661C380.304 77.4011 378.751 76.9067 376.773 76.483C374.796 76.0593 373.242 75.7768 372.112 75.6355C371.124 75.3531 369.287 75.1412 366.604 74.9999C363.92 74.8587 361.943 74.7881 360.671 74.7881C359.4 74.6468 356.858 74.5056 353.044 74.3643C349.372 74.2231 346.547 74.1525 344.57 74.1525ZM507.069 143.221H444.145V139.195C453.043 138.913 458.693 137.642 461.094 135.382C463.495 132.981 464.696 127.684 464.696 119.492V26.4827C464.696 18.2906 463.566 13.1352 461.306 11.0165C459.046 8.89785 453.326 7.55603 444.145 6.99106V2.9656H507.069V6.99106C498.171 7.41479 492.45 8.7566 489.908 11.0165C487.507 13.2764 486.306 18.4318 486.306 26.4827V119.492C486.306 127.401 487.577 132.627 490.12 135.17C492.662 137.571 498.312 138.913 507.069 139.195V143.221ZM610.249 45.1269H604.953C602.552 36.3698 599.656 29.7313 596.266 25.2115C587.65 14.1945 577.41 8.68598 565.546 8.68598C559.048 8.68598 553.822 10.5928 549.868 14.4064C546.054 18.0787 544.147 22.881 544.147 28.8132C544.147 31.6381 544.853 34.3924 546.266 37.076C547.678 39.7596 549.161 42.0901 550.715 44.0676C552.41 45.9037 555.305 48.2342 559.402 51.0591C563.498 53.884 566.817 56.0733 569.359 57.627C571.902 59.0394 576.139 61.5112 582.071 65.0423C593.512 71.6807 601.845 78.3192 607.071 84.9576C612.297 91.4548 614.91 98.6583 614.91 106.568C614.91 118.291 610.814 127.825 602.622 135.17C594.43 142.514 584.119 146.187 571.69 146.187C562.509 146.187 554.176 144.563 546.69 141.314C543.017 139.76 539.698 138.983 536.732 138.983C535.037 138.983 533.625 139.619 532.495 140.89C531.365 142.161 530.8 143.856 530.8 145.975H526.139L519.995 101.059H524.656C534.119 126.06 548.667 138.56 568.3 138.56C575.786 138.56 581.859 136.37 586.52 131.992C591.181 127.472 593.512 121.752 593.512 114.831C593.512 108.192 591.464 102.613 587.368 98.0933C580.588 90.7486 568.724 82.5565 551.774 73.5169C534.543 64.336 525.927 52.1891 525.927 37.076C525.927 25.7765 529.387 16.8075 536.308 10.169C543.229 3.38934 552.057 -0.000517187 562.791 -0.000517187C570.277 -0.000517187 577.693 1.55317 585.037 4.66053C588.851 6.35546 591.958 7.20292 594.359 7.20292C598.032 7.20292 600.292 4.80178 601.139 -0.000517187H605.588L610.249 45.1269ZM758.696 115.466L762.721 119.28C750.151 137.218 730.871 146.187 704.882 146.187C684.402 146.187 667.735 139.901 654.882 127.331C641.322 114.054 634.543 96.3984 634.543 74.3643C634.543 53.7428 640.899 36.2991 653.611 22.0335C666.887 7.34416 684.049 -0.000517187 705.094 -0.000517187C714.134 -0.000517187 722.538 1.05881 730.306 3.17748C739.204 5.71987 744.077 6.99106 744.925 6.99106C749.586 6.99106 752.552 4.66054 753.823 -0.000517187H758.06L759.967 48.093H755.094C752.834 37.9234 749.162 30.0844 744.077 24.5759C734.049 13.8414 722.679 8.47412 709.967 8.47412C694.289 8.47412 681.859 14.2651 672.678 25.8471C663.639 37.2879 659.119 52.3303 659.119 70.9745C659.119 93.7148 664.204 110.593 674.373 121.61C683.837 131.78 696.407 136.865 712.086 136.865C721.408 136.865 729.458 135.24 736.238 131.992C743.018 128.743 750.504 123.235 758.696 115.466ZM918.865 143.221H859.754V139.195C867.946 138.63 873.102 137.077 875.22 134.534C877.339 131.851 878.398 125.989 878.398 116.949V76.483H814.203V119.28C814.203 127.048 815.333 132.204 817.593 134.746C819.853 137.288 824.867 138.772 832.635 139.195L832.847 143.221H773.737V139.195C782.07 138.63 787.296 137.147 789.415 134.746C791.533 132.204 792.593 126.413 792.593 117.373V27.1183C792.593 18.9262 791.463 13.7001 789.203 11.4402C787.084 9.18034 781.929 7.69728 773.737 6.99106V2.9656H833.059V6.99106C825.149 7.69728 819.994 9.25096 817.593 11.6521C815.333 13.912 814.203 19.0674 814.203 27.1183V67.1609H878.398V27.1183C878.398 18.9262 877.268 13.7001 875.009 11.4402C872.89 9.18034 867.734 7.69728 859.542 6.99106V2.9656H918.865V6.99106C910.955 7.69728 905.8 9.25096 903.399 11.6521C901.139 13.912 900.009 19.0674 900.009 27.1183V119.704C900.009 127.19 901.139 132.204 903.399 134.746C905.8 137.147 910.955 138.63 918.865 139.195V143.221ZM1068.59 73.0932C1068.59 94.8447 1062.16 112.5 1049.31 126.06C1036.45 139.478 1019.79 146.187 999.306 146.187C978.684 146.187 961.947 139.407 949.094 125.848C936.382 112.288 930.026 94.4916 930.026 72.4576C930.026 50.9885 936.382 33.5449 949.094 20.1267C961.947 6.70857 978.684 -0.000517187 999.306 -0.000517187C1019.93 -0.000517187 1036.59 6.92043 1049.31 20.7623C1062.16 34.463 1068.59 51.9066 1068.59 73.0932ZM1044.43 71.822C1044.43 59.8162 1042.74 49.0817 1039.35 39.6184C1035.96 30.0138 1031.23 22.6691 1025.15 17.5843C1017.24 10.9459 1008.56 7.62665 999.094 7.62665C987.088 7.62665 976.989 12.3583 968.797 21.8217C964.277 26.9064 960.676 34.1805 957.992 43.6438C955.45 52.9659 954.178 62.7117 954.178 72.8813C954.178 98.5877 960.534 117.302 973.246 129.026C980.167 135.382 988.924 138.56 999.518 138.56C1010.53 138.56 1019.64 135.17 1026.85 128.39C1038.57 117.091 1044.43 98.2346 1044.43 71.822ZM1202.42 106.356L1192.25 143.221H1078.26V139.195C1086.03 138.772 1091.05 137.288 1093.31 134.746C1095.57 132.204 1096.7 126.907 1096.7 118.856V27.542C1096.7 19.2086 1095.64 13.8414 1093.52 11.4402C1091.54 9.03909 1086.46 7.55603 1078.26 6.99106V2.9656H1138.22V6.99106C1129.61 7.55603 1124.1 9.03909 1121.7 11.4402C1119.44 13.7001 1118.31 18.9262 1118.31 27.1183V125.424C1118.31 129.379 1119.51 131.992 1121.91 133.263C1124.45 134.393 1129.61 134.958 1137.37 134.958H1152.2C1169.3 134.958 1181.23 130.65 1188.01 122.034C1190.84 118.221 1193.8 112.995 1196.91 106.356H1202.42ZM1354.82 143.221H1300.8V139.195C1306.45 139.195 1310.33 138.56 1312.45 137.288C1314.43 136.3 1315.42 134.605 1315.42 132.204C1315.42 128.531 1314.07 123.588 1311.39 117.373L1302.7 97.4577H1247.2L1237.45 121.61C1236.18 124.859 1235.54 127.825 1235.54 130.509C1235.54 133.757 1236.67 136.017 1238.93 137.288C1241.33 138.56 1245.15 139.195 1250.37 139.195V143.221H1208.21V139.195C1214.14 138.63 1218.45 136.512 1221.14 132.839C1223.82 129.026 1228.41 119.351 1234.91 103.814L1278.55 0.423221H1282.79L1334.91 119.704C1338.02 127.048 1340.77 131.992 1343.17 134.534C1345.71 137.077 1349.6 138.63 1354.82 139.195V143.221ZM1299.74 88.7712L1275.16 30.5082L1250.8 88.7712H1299.74ZM1497.76 143.221H1463.44L1413.02 77.9661L1401.15 78.3898V119.492C1401.15 127.543 1402.21 132.698 1404.33 134.958C1406.59 137.218 1411.82 138.63 1420.01 139.195V143.221H1361.53V139.195C1369.59 138.489 1374.6 136.935 1376.58 134.534C1378.55 132.133 1379.54 126.271 1379.54 116.949V26.4827C1379.54 18.573 1378.55 13.4883 1376.58 11.2284C1374.6 8.96847 1369.59 7.55603 1361.53 6.99106V2.9656H1419.16C1438.51 2.9656 1453.27 7.1323 1463.44 15.4657C1470.36 21.1154 1473.82 29.5901 1473.82 40.8896C1473.82 60.0987 1461.04 71.6807 1435.48 75.6355L1477.85 129.238C1480.82 132.91 1483.64 135.382 1486.32 136.653C1489.01 137.924 1492.82 138.772 1497.76 139.195V143.221ZM1401.15 19.703V70.5508C1411.32 70.4095 1418.88 69.8445 1423.82 68.8558C1428.77 67.8671 1433.71 66.031 1438.65 63.3473C1446.7 58.8275 1450.73 50.7766 1450.73 39.1946C1450.73 20.268 1437.81 10.8046 1411.96 10.8046C1408.15 10.8046 1405.39 11.4402 1403.7 12.7114C1402 13.8414 1401.15 16.1719 1401.15 19.703ZM1598.61 45.1269H1593.31C1590.91 36.3698 1588.02 29.7313 1584.63 25.2115C1576.01 14.1945 1565.77 8.68598 1553.91 8.68598C1547.41 8.68598 1542.18 10.5928 1538.23 14.4064C1534.42 18.0787 1532.51 22.881 1532.51 28.8132C1532.51 31.6381 1533.22 34.3924 1534.63 37.076C1536.04 39.7596 1537.52 42.0901 1539.08 44.0676C1540.77 45.9037 1543.67 48.2342 1547.76 51.0591C1551.86 53.884 1555.18 56.0733 1557.72 57.627C1560.26 59.0394 1564.5 61.5112 1570.43 65.0423C1581.87 71.6807 1590.21 78.3192 1595.43 84.9576C1600.66 91.4548 1603.27 98.6583 1603.27 106.568C1603.27 118.291 1599.18 127.825 1590.98 135.17C1582.79 142.514 1572.48 146.187 1560.05 146.187C1550.87 146.187 1542.54 144.563 1535.05 141.314C1531.38 139.76 1528.06 138.983 1525.09 138.983C1523.4 138.983 1521.99 139.619 1520.86 140.89C1519.73 142.161 1519.16 143.856 1519.16 145.975H1514.5L1508.36 101.059H1513.02C1522.48 126.06 1537.03 138.56 1556.66 138.56C1564.15 138.56 1570.22 136.37 1574.88 131.992C1579.54 127.472 1581.87 121.752 1581.87 114.831C1581.87 108.192 1579.83 102.613 1575.73 98.0933C1568.95 90.7486 1557.09 82.5565 1540.14 73.5169C1522.9 64.336 1514.29 52.1891 1514.29 37.076C1514.29 25.7765 1517.75 16.8075 1524.67 10.169C1531.59 3.38934 1540.42 -0.000517187 1551.15 -0.000517187C1558.64 -0.000517187 1566.05 1.55317 1573.4 4.66053C1577.21 6.35546 1580.32 7.20292 1582.72 7.20292C1586.39 7.20292 1588.65 4.80178 1589.5 -0.000517187H1593.95L1598.61 45.1269Z" fill="#C4151C"/>
</svg>
