<svg width="181" height="32" viewBox="0 0 181 32" fill="none" xmlns="http://www.w3.org/2000/svg">
<path d="M16.6606 7.92487V8.36784C15.9387 8.43347 15.4711 8.58113 15.2578 8.81082C15.0445 9.04051 14.9379 9.54911 14.9379 10.3366V15.2586C13.5269 16.407 11.4433 16.9813 8.68702 16.9813C7.40731 16.9813 6.17683 16.7516 4.99556 16.2922C3.8307 15.8328 2.84631 15.1847 2.04239 14.348C0.680647 12.9206 -0.000222802 11.0011 -0.000222802 8.58933C-0.000222802 5.86585 0.877525 3.70839 2.63302 2.11696C4.17523 0.706003 6.13581 0.000523222 8.51475 0.000523222C9.56477 0.000523222 10.6558 0.189198 11.7879 0.566548C12.2308 0.730613 12.5918 0.812646 12.8707 0.812646C13.1332 0.812646 13.3629 0.738817 13.5598 0.591159C13.7566 0.427093 13.8961 0.230214 13.9781 0.000523222H14.5195L14.7164 5.19318H14.1504C13.6254 3.91347 13.0429 2.9619 12.4031 2.33845C11.4515 1.43609 10.2538 0.984914 8.81007 0.984914C7.16942 0.984914 5.79948 1.55094 4.70024 2.68299C3.43694 3.94629 2.80529 5.93968 2.80529 8.66316C2.80529 10.9273 3.39592 12.7156 4.57719 14.0281C5.75846 15.3406 7.32528 15.9969 9.27765 15.9969C10.2128 15.9969 10.9921 15.8492 11.6156 15.5539C12.239 15.2586 12.5508 14.9058 12.5508 14.4957V10.6319C12.5508 9.68036 12.4277 9.08973 12.1816 8.86004C11.9519 8.61394 11.3449 8.44987 10.3605 8.36784V7.92487H16.6606ZM33.4119 8.49089C33.4119 11.0175 32.6654 13.0683 31.1725 14.6433C29.6795 16.2019 27.7435 16.9813 25.3646 16.9813C22.9692 16.9813 21.025 16.1937 19.532 14.6187C18.0555 13.0437 17.3172 10.9765 17.3172 8.41706C17.3172 5.92327 18.0555 3.89707 19.532 2.33845C21.025 0.779832 22.9692 0.000523222 25.3646 0.000523222C27.7599 0.000523222 29.6959 0.804442 31.1725 2.41228C32.6654 4.00371 33.4119 6.02991 33.4119 8.49089ZM30.6064 8.34323C30.6064 6.94868 30.4096 5.70178 30.0158 4.60255C29.622 3.48691 29.0724 2.63377 28.3669 2.04313C27.4482 1.27203 26.4392 0.886475 25.3399 0.886475C23.9454 0.886475 22.7723 1.43609 21.8207 2.53533C21.2957 3.12596 20.8774 3.9709 20.5657 5.07013C20.2703 6.15296 20.1227 7.28501 20.1227 8.46628C20.1227 11.4523 20.861 13.6261 22.3376 14.9879C23.1415 15.7262 24.1587 16.0953 25.3892 16.0953C26.6689 16.0953 27.7271 15.7015 28.5638 14.914C29.9256 13.6015 30.6064 11.4112 30.6064 8.34323ZM44.1339 8.04791V8.07252C45.3644 8.2694 46.3652 8.72058 47.1363 9.42606C47.9402 10.1479 48.3422 11.0913 48.3422 12.2562C48.3422 13.6179 47.809 14.6925 46.7425 15.4801C45.6761 16.2512 44.2488 16.6367 42.4604 16.6367H34.167V16.1691C35.1349 16.1363 35.7666 15.9805 36.0619 15.7015C36.3736 15.4062 36.5295 14.791 36.5295 13.8558V3.10135C36.5295 2.14978 36.39 1.55094 36.1111 1.30484C35.8322 1.04234 35.1842 0.878272 34.167 0.812646V0.34506H41.0577C43.1741 0.34506 44.7738 0.706003 45.8566 1.42789C46.9558 2.13337 47.5054 3.14237 47.5054 4.45489C47.5054 5.57053 47.1691 6.42367 46.4964 7.0143C46.0207 7.42447 45.2331 7.769 44.1339 8.04791ZM39.0397 7.62955H41.3038C43.7648 7.62955 44.9953 6.61234 44.9953 4.57794C44.9953 3.52792 44.6261 2.7158 43.8878 2.14157C43.1659 1.55094 42.0831 1.25562 40.6393 1.25562H39.6303C39.2366 1.25562 39.0397 1.51813 39.0397 2.04313V7.62955ZM39.0397 8.61394V14.6187C39.0397 15.0289 39.1463 15.316 39.3596 15.4801C39.5893 15.6441 39.9913 15.7262 40.5655 15.7262C41.6811 15.7262 42.5015 15.6687 43.0265 15.5539C43.5515 15.4226 44.0683 15.1273 44.5769 14.6679C45.2003 14.1265 45.5121 13.3144 45.5121 12.2316C45.5121 10.9847 45.1265 10.1069 44.3554 9.59833C44.1749 9.46708 43.9945 9.36043 43.814 9.2784C43.6335 9.17996 43.4694 9.10613 43.3218 9.05691C43.1905 8.99129 43.0101 8.93387 42.7804 8.88465C42.5507 8.83543 42.3702 8.80261 42.239 8.78621C42.1241 8.75339 41.9108 8.72878 41.5991 8.71238C41.2874 8.69597 41.0577 8.68777 40.91 8.68777C40.7624 8.67136 40.4671 8.65495 40.0241 8.63855C39.5975 8.62214 39.2694 8.61394 39.0397 8.61394ZM57.423 16.6367H50.1139V16.1691C51.1475 16.1363 51.8038 15.9887 52.0827 15.7262C52.3616 15.4472 52.501 14.832 52.501 13.8804V3.07674C52.501 2.12517 52.3698 1.52633 52.1073 1.28023C51.8448 1.03413 51.1803 0.878272 50.1139 0.812646V0.34506H57.423V0.812646C56.3894 0.861865 55.7249 1.01773 55.4296 1.28023C55.1507 1.54274 55.0112 2.14157 55.0112 3.07674V13.8804C55.0112 14.7992 55.1589 15.4062 55.4542 15.7015C55.7495 15.9805 56.4058 16.1363 57.423 16.1691V16.6367ZM68.9159 5.2424H68.3007C68.0218 4.2252 67.6855 3.45409 67.2917 2.92908C66.2909 1.64938 65.1014 1.00952 63.7233 1.00952C62.9686 1.00952 62.3615 1.23101 61.9022 1.67399C61.4592 2.10056 61.2377 2.65838 61.2377 3.34745C61.2377 3.67558 61.3197 3.99551 61.4838 4.30723C61.6479 4.61895 61.8201 4.88966 62.0006 5.11935C62.1975 5.33264 62.5338 5.60334 63.0096 5.93147C63.4854 6.2596 63.8709 6.51391 64.1663 6.69438C64.4616 6.85844 64.9538 7.14556 65.6428 7.55572C66.9718 8.32682 67.9398 9.09793 68.5468 9.86904C69.1538 10.6237 69.4574 11.4605 69.4574 12.3792C69.4574 13.741 68.9816 14.8484 68.03 15.7015C67.0784 16.5547 65.8807 16.9813 64.437 16.9813C63.3705 16.9813 62.4026 16.7926 61.533 16.4152C61.1064 16.2348 60.7209 16.1445 60.3764 16.1445C60.1795 16.1445 60.0154 16.2184 59.8842 16.366C59.7529 16.5137 59.6873 16.7105 59.6873 16.9566H59.1459L58.4322 11.7394H58.9736C60.0728 14.6433 61.7627 16.0953 64.0432 16.0953C64.9128 16.0953 65.6182 15.841 66.1596 15.3324C66.7011 14.8074 66.9718 14.1429 66.9718 13.339C66.9718 12.5679 66.7339 11.9198 66.2581 11.3948C65.4706 10.5417 64.0924 9.59013 62.1236 8.54011C60.1221 7.47369 59.1213 6.06273 59.1213 4.30723C59.1213 2.99471 59.5232 1.9529 60.3271 1.18179C61.1311 0.39428 62.1565 0.000523222 63.4034 0.000523222C64.2729 0.000523222 65.1342 0.180995 65.9874 0.541938C66.4304 0.738817 66.7913 0.837256 67.0702 0.837256C67.4968 0.837256 67.7593 0.558345 67.8577 0.000523222H68.3745L68.9159 5.2424ZM85.6669 13.4128L86.1345 13.8558C84.6743 15.9394 82.4348 16.9813 79.416 16.9813C77.0371 16.9813 75.1011 16.2512 73.6081 14.791C72.0331 13.2488 71.2456 11.198 71.2456 8.63855C71.2456 6.2432 71.9839 4.217 73.4605 2.55994C75.0027 0.853662 76.9961 0.000523222 79.4406 0.000523222C80.4907 0.000523222 81.4669 0.123572 82.3692 0.369671C83.4028 0.664988 83.9688 0.812646 84.0673 0.812646C84.6087 0.812646 84.9532 0.541939 85.1009 0.000523222H85.5931L85.8146 5.58694H85.2485C84.986 4.40567 84.5595 3.49511 83.9688 2.85526C82.804 1.60836 81.4833 0.984914 80.0067 0.984914C78.1856 0.984914 76.7418 1.65758 75.6754 3.00291C74.6253 4.33184 74.1003 6.07913 74.1003 8.24479C74.1003 10.8862 74.691 12.8468 75.8722 14.1265C76.9715 15.3078 78.4316 15.8984 80.2528 15.8984C81.3356 15.8984 82.2708 15.7098 83.0583 15.3324C83.8458 14.9551 84.7153 14.3152 85.6669 13.4128ZM103.78 16.6367H96.9134V16.1691C97.865 16.1035 98.4638 15.923 98.7099 15.6277C98.956 15.316 99.079 14.6351 99.079 13.5851V8.88465H91.6223V13.8558C91.6223 14.7582 91.7535 15.357 92.016 15.6523C92.2785 15.9476 92.861 16.1199 93.7633 16.1691L93.7879 16.6367H86.9218V16.1691C87.8898 16.1035 88.4968 15.9312 88.7429 15.6523C88.989 15.357 89.1121 14.6843 89.1121 13.6343V3.15057C89.1121 2.199 88.9808 1.59196 88.7183 1.32945C88.4722 1.06695 87.8734 0.894679 86.9218 0.812646V0.34506H93.8126V0.812646C92.8938 0.894679 92.2949 1.07515 92.016 1.35406C91.7535 1.61656 91.6223 2.2154 91.6223 3.15057V7.80182H99.079V3.15057C99.079 2.199 98.9478 1.59196 98.6853 1.32945C98.4392 1.06695 97.8403 0.894679 96.8888 0.812646V0.34506H103.78V0.812646C102.861 0.894679 102.262 1.07515 101.983 1.35406C101.72 1.61656 101.589 2.2154 101.589 3.15057V13.905C101.589 14.7746 101.72 15.357 101.983 15.6523C102.262 15.9312 102.861 16.1035 103.78 16.1691V16.6367ZM120.679 8.49089C120.679 11.0175 119.932 13.0683 118.439 14.6433C116.946 16.2019 115.01 16.9813 112.631 16.9813C110.236 16.9813 108.292 16.1937 106.799 14.6187C105.322 13.0437 104.584 10.9765 104.584 8.41706C104.584 5.92327 105.322 3.89707 106.799 2.33845C108.292 0.779832 110.236 0.000523222 112.631 0.000523222C115.026 0.000523222 116.962 0.804442 118.439 2.41228C119.932 4.00371 120.679 6.02991 120.679 8.49089ZM117.873 8.34323C117.873 6.94868 117.676 5.70178 117.282 4.60255C116.889 3.48691 116.339 2.63377 115.634 2.04313C114.715 1.27203 113.706 0.886475 112.607 0.886475C111.212 0.886475 110.039 1.43609 109.087 2.53533C108.562 3.12596 108.144 3.9709 107.832 5.07013C107.537 6.15296 107.389 7.28501 107.389 8.46628C107.389 11.4523 108.128 13.6261 109.604 14.9879C110.408 15.7262 111.425 16.0953 112.656 16.0953C113.935 16.0953 114.994 15.7015 115.83 14.914C117.192 13.6015 117.873 11.4112 117.873 8.34323ZM135.732 12.3546L134.551 16.6367H121.31V16.1691C122.213 16.1199 122.795 15.9476 123.058 15.6523C123.32 15.357 123.452 14.7418 123.452 13.8066V3.19979C123.452 2.23181 123.328 1.60836 123.082 1.32945C122.853 1.05054 122.262 0.878272 121.31 0.812646V0.34506H128.275V0.812646C127.274 0.878272 126.634 1.05054 126.355 1.32945C126.093 1.59196 125.962 2.199 125.962 3.15057V14.5695C125.962 15.0289 126.101 15.3324 126.38 15.4801C126.675 15.6113 127.274 15.6769 128.177 15.6769H129.899C131.884 15.6769 133.271 15.1765 134.058 14.1757C134.386 13.7328 134.731 13.1257 135.092 12.3546H135.732ZM152.943 16.6367H146.667V16.1691C147.323 16.1691 147.775 16.0953 148.021 15.9476C148.25 15.8328 148.365 15.6359 148.365 15.357C148.365 14.9304 148.209 14.3562 147.898 13.6343L146.889 11.321H140.441L139.309 14.1265C139.161 14.5039 139.087 14.8484 139.087 15.1601C139.087 15.5375 139.219 15.8 139.481 15.9476C139.76 16.0953 140.203 16.1691 140.81 16.1691V16.6367H135.913V16.1691C136.602 16.1035 137.102 15.8574 137.414 15.4308C137.726 14.9879 138.259 13.864 139.014 12.0593L144.083 0.0497436H144.575L150.629 13.905C150.99 14.7582 151.31 15.3324 151.589 15.6277C151.884 15.923 152.336 16.1035 152.943 16.1691V16.6367ZM146.544 10.312L143.689 3.54433L140.859 10.312H146.544ZM169.054 16.6367H165.067L159.21 9.05691L157.832 9.10613V13.8804C157.832 14.8156 157.955 15.4144 158.201 15.6769C158.464 15.9394 159.071 16.1035 160.022 16.1691V16.6367H153.23V16.1691C154.165 16.0871 154.748 15.9066 154.977 15.6277C155.207 15.3488 155.322 14.6679 155.322 13.5851V3.07674C155.322 2.15798 155.207 1.56734 154.977 1.30484C154.748 1.04234 154.165 0.878272 153.23 0.812646V0.34506H159.924C162.172 0.34506 163.886 0.829052 165.067 1.79704C165.871 2.4533 166.273 3.43769 166.273 4.75021C166.273 6.98149 164.789 8.32682 161.819 8.78621L166.741 15.0125C167.085 15.439 167.414 15.7262 167.725 15.8738C168.037 16.0215 168.48 16.1199 169.054 16.1691V16.6367ZM157.832 2.28923V8.19557C159.013 8.17917 159.891 8.11354 160.465 7.99869C161.04 7.88385 161.614 7.67056 162.188 7.35884C163.123 6.83383 163.591 5.89866 163.591 4.55333C163.591 2.35486 162.09 1.25562 159.087 1.25562C158.644 1.25562 158.324 1.32945 158.127 1.47711C157.931 1.60836 157.832 1.87907 157.832 2.28923ZM180.276 5.2424H179.661C179.382 4.2252 179.046 3.45409 178.652 2.92908C177.651 1.64938 176.462 1.00952 175.083 1.00952C174.329 1.00952 173.722 1.23101 173.262 1.67399C172.819 2.10056 172.598 2.65838 172.598 3.34745C172.598 3.67558 172.68 3.99551 172.844 4.30723C173.008 4.61895 173.18 4.88966 173.361 5.11935C173.558 5.33264 173.894 5.60334 174.37 5.93147C174.845 6.2596 175.231 6.51391 175.526 6.69438C175.822 6.85844 176.314 7.14556 177.003 7.55572C178.332 8.32682 179.3 9.09793 179.907 9.86904C180.514 10.6237 180.817 11.4605 180.817 12.3792C180.817 13.741 180.342 14.8484 179.39 15.7015C178.439 16.5547 177.241 16.9813 175.797 16.9813C174.731 16.9813 173.763 16.7926 172.893 16.4152C172.467 16.2348 172.081 16.1445 171.736 16.1445C171.54 16.1445 171.376 16.2184 171.244 16.366C171.113 16.5137 171.047 16.7105 171.047 16.9566H170.506L169.792 11.7394H170.334C171.433 14.6433 173.123 16.0953 175.403 16.0953C176.273 16.0953 176.978 15.841 177.52 15.3324C178.061 14.8074 178.332 14.1429 178.332 13.339C178.332 12.5679 178.094 11.9198 177.618 11.3948C176.831 10.5417 175.453 9.59013 173.484 8.54011C171.482 7.47369 170.481 6.06273 170.481 4.30723C170.481 2.99471 170.883 1.9529 171.687 1.18179C172.491 0.39428 173.517 0.000523222 174.763 0.000523222C175.633 0.000523222 176.494 0.180995 177.347 0.541938C177.79 0.738817 178.151 0.837256 178.43 0.837256C178.857 0.837256 179.119 0.558345 179.218 0.000523222H179.735L180.276 5.2424ZM64.0575 31.6367H60.1353V31.3445C60.5455 31.3445 60.8274 31.2983 60.9813 31.206C61.1248 31.1343 61.1966 31.0112 61.1966 30.8369C61.1966 30.5703 61.0992 30.2114 60.9043 29.7602L60.2737 28.3144H56.2439L55.5363 30.0678C55.4441 30.3037 55.3979 30.519 55.3979 30.7139C55.3979 30.9497 55.4799 31.1138 55.644 31.206C55.8183 31.2983 56.0952 31.3445 56.4746 31.3445V31.6367H53.4138V31.3445C53.8444 31.3035 54.1572 31.1497 54.352 30.883C54.5468 30.6062 54.8801 29.9038 55.3518 28.7758L58.5203 21.2699H58.8279L62.6116 29.9294C62.8372 30.4626 63.0372 30.8215 63.2115 31.0061C63.3961 31.1907 63.6781 31.3035 64.0575 31.3445V31.6367ZM60.0584 27.6838L58.2742 23.454L56.5054 27.6838H60.0584ZM73.0291 29.6218L73.3213 29.8987C72.4087 31.2009 71.009 31.8521 69.1223 31.8521C67.6355 31.8521 66.4255 31.3957 65.4924 30.4831C64.508 29.5193 64.0158 28.2375 64.0158 26.6379C64.0158 25.1408 64.4772 23.8744 65.4001 22.8387C66.364 21.7723 67.6098 21.2391 69.1377 21.2391C69.7939 21.2391 70.4041 21.316 70.968 21.4698C71.614 21.6544 71.9678 21.7467 72.0293 21.7467C72.3677 21.7467 72.583 21.5775 72.6753 21.2391H72.983L73.1214 24.7306H72.7676C72.6036 23.9923 72.337 23.4232 71.9678 23.0233C71.2398 22.244 70.4143 21.8543 69.4914 21.8543C68.3532 21.8543 67.4509 22.2748 66.7844 23.1156C66.1281 23.9462 65.8 25.0382 65.8 26.3918C65.8 28.0427 66.1691 29.268 66.9074 30.0678C67.5944 30.8061 68.5071 31.1753 69.6453 31.1753C70.322 31.1753 70.9065 31.0574 71.3987 30.8215C71.8909 30.5857 72.4344 30.1858 73.0291 29.6218ZM84.1707 31.6367H80.2485V31.3445C80.6586 31.3445 80.9406 31.2983 81.0944 31.206C81.238 31.1343 81.3098 31.0112 81.3098 30.8369C81.3098 30.5703 81.2124 30.2114 81.0175 29.7602L80.3869 28.3144H76.3571L75.6495 30.0678C75.5572 30.3037 75.5111 30.519 75.5111 30.7139C75.5111 30.9497 75.5931 31.1138 75.7572 31.206C75.9315 31.2983 76.2084 31.3445 76.5878 31.3445V31.6367H73.5269V31.3445C73.9576 31.3035 74.2704 31.1497 74.4652 30.883C74.66 30.6062 74.9933 29.9038 75.465 28.7758L78.6335 21.2699H78.9411L82.7248 29.9294C82.9504 30.4626 83.1504 30.8215 83.3247 31.0061C83.5093 31.1907 83.7913 31.3035 84.1707 31.3445V31.6367ZM80.1716 27.6838L78.3874 23.454L76.6185 27.6838H80.1716ZM84.3349 21.4544H88.4878C90.4874 21.4544 92.0255 21.921 93.1022 22.8541C94.1173 23.7257 94.6249 24.9408 94.6249 26.4994C94.6249 28.3759 93.9276 29.7602 92.5331 30.6523C91.5179 31.3086 90.2259 31.6367 88.657 31.6367H84.3349V31.3445C84.9297 31.3035 85.3039 31.2009 85.4577 31.0369C85.6116 30.8625 85.6885 30.4729 85.6885 29.8679V23.1771C85.6885 22.5824 85.6116 22.2081 85.4577 22.0543C85.3039 21.8902 84.9297 21.7877 84.3349 21.7467V21.4544ZM87.2573 22.6695V30.3447C87.2573 30.6216 87.3035 30.8113 87.3958 30.9138C87.4983 31.0163 87.6983 31.0676 87.9956 31.0676C88.7954 31.0676 89.4415 31.0112 89.9336 30.8984C90.4258 30.7856 90.8975 30.5754 91.3487 30.2678C92.4151 29.55 92.9483 28.3247 92.9483 26.5917C92.9483 25.1049 92.4613 23.9359 91.4871 23.0848C91.0462 22.6952 90.5643 22.4234 90.0413 22.2696C89.5184 22.1056 88.8621 22.0235 88.0725 22.0235C87.7752 22.0235 87.565 22.0697 87.4419 22.162C87.3189 22.2542 87.2573 22.4234 87.2573 22.6695ZM104.064 29.0373L103.356 31.6367H95.066V31.3445C95.6505 31.3035 96.0196 31.2009 96.1734 31.0369C96.3273 30.8625 96.4042 30.478 96.4042 29.8833V23.1771C96.4042 22.6029 96.3221 22.2286 96.1581 22.0543C96.0043 21.88 95.6402 21.7774 95.066 21.7467V21.4544H103.218L103.28 23.6539H102.895C102.782 22.9669 102.582 22.526 102.295 22.3312C102.008 22.1363 101.418 22.0389 100.526 22.0389H98.5114C98.2858 22.0389 98.1371 22.0748 98.0653 22.1466C98.0038 22.2081 97.973 22.3568 97.973 22.5926V25.9765H100.296C100.942 25.9765 101.367 25.8842 101.572 25.6996C101.788 25.515 101.941 25.1151 102.034 24.4999H102.387V28.0991H102.034C101.941 27.4531 101.793 27.0429 101.588 26.8686C101.383 26.6943 100.952 26.6071 100.296 26.6071H97.973V30.3447C97.973 30.6523 98.0807 30.8523 98.296 30.9446C98.5114 31.0266 98.9215 31.0676 99.5265 31.0676H100.08C101.177 31.0676 101.957 30.9343 102.418 30.6677C102.88 30.4011 103.285 29.8576 103.633 29.0373H104.064ZM117.266 31.6367H112.959V31.3445C113.564 31.3035 113.944 31.1907 114.097 31.0061C114.262 30.8113 114.344 30.3908 114.344 29.7448V22.8387L110.421 31.6367H110.206L106.33 23.1925V29.3142C106.33 30.1448 106.417 30.6831 106.591 30.9292C106.766 31.1753 107.155 31.3137 107.76 31.3445V31.6367H104.161V31.3445C104.612 31.3137 104.935 31.2471 105.13 31.1445C105.325 31.042 105.458 30.8625 105.53 30.6062C105.612 30.3396 105.653 29.9089 105.653 29.3142V23.1925C105.653 22.608 105.566 22.2337 105.392 22.0697C105.217 21.8954 104.818 21.7877 104.192 21.7467V21.4544H107.238L110.791 29.1757L114.19 21.4544H117.251V21.7467C116.697 21.7569 116.333 21.8543 116.159 22.0389C115.994 22.2235 115.912 22.6029 115.912 23.1771V29.914C115.912 30.4575 115.994 30.8215 116.159 31.0061C116.333 31.1907 116.702 31.3035 117.266 31.3445V31.6367ZM128.151 21.4544V21.7467C127.7 21.7877 127.341 21.9159 127.074 22.1312C126.818 22.3465 126.469 22.7926 126.028 23.4694L123.752 26.9762V29.9294C123.752 30.5139 123.849 30.8882 124.044 31.0522C124.239 31.2163 124.669 31.3137 125.336 31.3445V31.6367H120.629V31.3445C121.327 31.2932 121.757 31.1855 121.921 31.0215C122.096 30.8472 122.183 30.4216 122.183 29.7448V27.1147L120.168 24.1615C119.471 23.1361 118.973 22.485 118.676 22.2081C118.379 21.921 118.045 21.7672 117.676 21.7467V21.4544H121.968V21.7467L121.598 21.7621C121.116 21.7723 120.875 21.9056 120.875 22.162C120.875 22.3773 120.968 22.6183 121.152 22.8849L123.398 26.2841L125.628 22.8695C125.772 22.6542 125.844 22.4388 125.844 22.2235C125.833 22.0492 125.751 21.9312 125.597 21.8697C125.454 21.7979 125.187 21.7569 124.798 21.7467V21.4544H128.151Z" fill="white"/>
</svg>
